<svg xmlns="http://www.w3.org/2000/svg">
  <symbol id="icon-arrow" viewBox="0 0 18 15">
    <path d="M.293 8.071a1 1 0 0 1 0-1.414L6.657.293A1 1 0 1 1 8.07 1.707L2.414 7.364l5.657 5.657a1 1 0 1 1-1.414 1.414L.293 8.071Zm17.469.293H1v-2h16.762v2Z"/>
  </symbol>
  <symbol id="icon-facebook" viewBox="0 0 32 32">
    <path d="M0 16c0-8.837 7.163-16 16-16s16 7.163 16 16c0 8.837-7.163 16-16 16s-16-7.163-16-16zM17.668 25.408v-8.705h2.403l0.319-3h-2.721l0.004-1.501c0-0.782 0.074-1.202 1.198-1.202h1.502v-3h-2.403c-2.887 0-3.903 1.455-3.903 3.902v1.801h-1.799v3h1.799v8.705h3.602z"></path>
  </symbol>
  <symbol id="icon-instagram" viewBox="0 0 32 32">
  <g fill-rule="evenodd" clip-path="url(#a)" clip-rule="evenodd">
    <path d="M0 16C0 7.163 7.163 0 16 0s16 7.163 16 16-7.163 16-16 16S0 24.837 0 16Zm16-8.533c-2.317 0-2.608.01-3.518.051-.908.042-1.528.186-2.07.397a4.178 4.178 0 0 0-1.513.984 4.19 4.19 0 0 0-.985 1.511c-.211.543-.355 1.163-.396 2.071-.04.91-.051 1.201-.051 3.52 0 2.317.01 2.607.051 3.517.042.908.186 1.528.397 2.07a4.18 4.18 0 0 0 .984 1.513c.474.474.95.767 1.511.985.543.21 1.163.354 2.072.396.91.041 1.2.052 3.518.052 2.317 0 2.607-.01 3.518-.052.908-.042 1.529-.185 2.072-.396a4.175 4.175 0 0 0 1.51-.985c.475-.475.767-.95.985-1.512.21-.543.354-1.163.397-2.071.04-.91.051-1.2.051-3.518 0-2.318-.01-2.608-.051-3.518-.043-.909-.187-1.53-.397-2.072A4.187 4.187 0 0 0 23.1 8.9a4.17 4.17 0 0 0-1.51-.984c-.545-.211-1.165-.355-2.074-.397-.91-.041-1.2-.051-3.518-.051h.003Z"/>
    <path d="M15.235 9.005H16c2.279 0 2.549.008 3.449.05.832.037 1.283.176 1.584.293.398.155.682.34.98.638.3.299.484.583.64.982.116.3.255.752.293 1.584.041.9.05 1.17.05 3.447s-.009 2.547-.05 3.447c-.038.832-.177 1.284-.294 1.584a2.64 2.64 0 0 1-.638.98 2.64 2.64 0 0 1-.98.638c-.301.118-.753.256-1.585.294-.9.041-1.17.05-3.449.05-2.278 0-2.548-.009-3.448-.05-.832-.038-1.283-.177-1.584-.294a2.643 2.643 0 0 1-.982-.638 2.645 2.645 0 0 1-.638-.98c-.117-.301-.256-.753-.294-1.585-.041-.9-.05-1.17-.05-3.448 0-2.28.009-2.548.05-3.447.038-.833.177-1.284.294-1.585.154-.398.34-.683.638-.981.299-.299.583-.484.982-.639.3-.117.752-.256 1.584-.294.787-.036 1.093-.046 2.683-.048v.002Zm5.32 1.417a1.024 1.024 0 1 0 0 2.048 1.024 1.024 0 0 0 0-2.048ZM16 11.618a4.382 4.382 0 1 0 0 8.765 4.382 4.382 0 0 0 0-8.765Z"/>
    <path d="M16 13.155a2.844 2.844 0 1 1 0 5.69 2.844 2.844 0 0 1 0-5.69Z"/>
  </g>
  <defs>
    <clipPath id="a">
      <path d="M0 0h32v32H0z"/>
    </clipPath>
  </defs>
  </symbol>
</svg>


